<mxfile host="Electron" agent="Mozilla/5.0 (Windows NT 10.0; Win64; x64) AppleWebKit/537.36 (KHTML, like Gecko) draw.io/24.7.8 Chrome/128.0.6613.36 Electron/32.0.1 Safari/537.36" version="24.7.8">
  <diagram name="第 1 页" id="xd5KwSB1JELT3Rdul7wL">
    <mxGraphModel dx="1098" dy="676" grid="1" gridSize="10" guides="1" tooltips="1" connect="1" arrows="1" fold="1" page="1" pageScale="1" pageWidth="3300" pageHeight="4681" math="0" shadow="0">
      <root>
        <mxCell id="0" />
        <mxCell id="1" parent="0" />
        <mxCell id="jYtdolXAS-GoiYT0mVRR-4" style="edgeStyle=orthogonalEdgeStyle;rounded=0;orthogonalLoop=1;jettySize=auto;html=1;exitX=1;exitY=0.5;exitDx=0;exitDy=0;entryX=0;entryY=0.5;entryDx=0;entryDy=0;" edge="1" parent="1" source="jYtdolXAS-GoiYT0mVRR-1" target="jYtdolXAS-GoiYT0mVRR-3">
          <mxGeometry relative="1" as="geometry" />
        </mxCell>
        <mxCell id="jYtdolXAS-GoiYT0mVRR-5" value="exec" style="edgeLabel;html=1;align=center;verticalAlign=middle;resizable=0;points=[];" vertex="1" connectable="0" parent="jYtdolXAS-GoiYT0mVRR-4">
          <mxGeometry x="0.3375" y="1" relative="1" as="geometry">
            <mxPoint as="offset" />
          </mxGeometry>
        </mxCell>
        <mxCell id="jYtdolXAS-GoiYT0mVRR-1" value="AggregateProxy" style="rounded=0;whiteSpace=wrap;html=1;" vertex="1" parent="1">
          <mxGeometry x="180" y="180" width="120" height="60" as="geometry" />
        </mxCell>
        <mxCell id="jYtdolXAS-GoiYT0mVRR-2" value="需要生成的接口类型" style="rounded=0;whiteSpace=wrap;html=1;" vertex="1" parent="1">
          <mxGeometry x="260" y="130" width="90" height="50" as="geometry" />
        </mxCell>
        <mxCell id="jYtdolXAS-GoiYT0mVRR-3" value="" style="rounded=0;whiteSpace=wrap;html=1;" vertex="1" parent="1">
          <mxGeometry x="480" y="180" width="120" height="60" as="geometry" />
        </mxCell>
        <mxCell id="jYtdolXAS-GoiYT0mVRR-6" value="base" style="rounded=0;whiteSpace=wrap;html=1;" vertex="1" parent="1">
          <mxGeometry x="350" y="350" width="90" height="40" as="geometry" />
        </mxCell>
        <mxCell id="jYtdolXAS-GoiYT0mVRR-7" value="draftContext" style="rounded=0;whiteSpace=wrap;html=1;" vertex="1" parent="1">
          <mxGeometry x="210" y="350" width="90" height="40" as="geometry" />
        </mxCell>
        <mxCell id="jYtdolXAS-GoiYT0mVRR-8" value="proxyClass" style="rounded=0;whiteSpace=wrap;html=1;" vertex="1" parent="1">
          <mxGeometry x="510" y="350" width="90" height="40" as="geometry" />
        </mxCell>
        <mxCell id="jYtdolXAS-GoiYT0mVRR-10" value="" style="rounded=0;whiteSpace=wrap;html=1;" vertex="1" parent="1">
          <mxGeometry x="495" y="460" width="120" height="60" as="geometry" />
        </mxCell>
      </root>
    </mxGraphModel>
  </diagram>
</mxfile>
